<svg width="726" height="662" viewBox="0 0 726 662" fill="none" xmlns="http://www.w3.org/2000/svg">
<path fill-rule="evenodd" clip-rule="evenodd" d="M743 337C743 532.509 584.509 691 389 691C193.491 691 35 532.509 35 337C35 141.491 193.491 -17 389 -17C584.509 -17 743 141.491 743 337ZM778 337C778 551.839 603.839 726 389 726C174.161 726 0 551.839 0 337C0 122.161 174.161 -52 389 -52C603.839 -52 778 122.161 778 337ZM388.999 631.399C551.591 631.399 683.398 499.592 683.398 337C683.398 174.408 551.591 42.6006 388.999 42.6006C226.407 42.6006 94.5996 174.408 94.5996 337C94.5996 499.592 226.407 631.399 388.999 631.399ZM388.999 666.399C570.921 666.399 718.398 518.922 718.398 337C718.398 155.078 570.921 7.60059 388.999 7.60059C207.077 7.60059 59.5996 155.078 59.5996 337C59.5996 518.922 207.077 666.399 388.999 666.399ZM623.799 337C623.799 466.676 518.676 571.799 389 571.799C259.324 571.799 154.201 466.676 154.201 337C154.201 207.324 259.324 102.201 389 102.201C518.676 102.201 623.799 207.324 623.799 337ZM658.799 337C658.799 486.006 538.006 606.799 389 606.799C239.994 606.799 119.201 486.006 119.201 337C119.201 187.994 239.994 67.2011 389 67.2011C538.006 67.2011 658.799 187.994 658.799 337ZM564.198 337C564.198 433.759 485.759 512.198 388.999 512.198C292.24 512.198 213.801 433.759 213.801 337C213.801 240.241 292.24 161.802 388.999 161.802C485.759 161.802 564.198 240.241 564.198 337ZM599.198 337C599.198 453.089 505.088 547.198 388.999 547.198C272.91 547.198 178.801 453.089 178.801 337C178.801 220.911 272.91 126.802 388.999 126.802C505.088 126.802 599.198 220.911 599.198 337ZM389 452.598C452.843 452.598 504.598 400.843 504.598 337C504.598 273.157 452.843 221.402 389 221.402C325.157 221.402 273.402 273.157 273.402 337C273.402 400.843 325.157 452.598 389 452.598ZM389 487.598C472.173 487.598 539.598 420.173 539.598 337C539.598 253.827 472.173 186.402 389 186.402C305.827 186.402 238.402 253.827 238.402 337C238.402 420.173 305.827 487.598 389 487.598ZM444.996 337C444.996 367.926 419.926 392.997 388.999 392.997C358.073 392.997 333.002 367.926 333.002 337C333.002 306.074 358.073 281.003 388.999 281.003C419.926 281.003 444.996 306.074 444.996 337ZM479.996 337C479.996 387.256 439.256 427.997 388.999 427.997C338.743 427.997 298.002 387.256 298.002 337C298.002 286.744 338.743 246.003 388.999 246.003C439.256 246.003 479.996 286.744 479.996 337Z" fill="url(#paint0_linear_101_1592)"/>
<defs>
<linearGradient id="paint0_linear_101_1592" x1="389" y1="-52" x2="389" y2="726" gradientUnits="userSpaceOnUse">
<stop stop-color="#02B5EA"/>
<stop offset="1" stop-color="#02B5EA" stop-opacity="0.15"/>
</linearGradient>
</defs>
</svg>
