<svg width="570" height="484" viewBox="0 0 570 484" fill="none" xmlns="http://www.w3.org/2000/svg">
<path d="M397.956 484H435.609C516.304 433.673 570 344.107 570 242C570 139.893 516.304 50.327 435.609 0H397.956C488.955 42.5475 552 134.911 552 242C552 349.089 488.955 441.452 397.956 484Z" fill="#FFDDEE"/>
<path d="M134.391 484H172.044C81.0452 441.452 18 349.089 18 242C18 134.911 81.0452 42.5475 172.044 0L134.391 0C53.6963 50.327 0 139.893 0 242C0 344.107 53.6963 433.673 134.391 484Z" fill="#FFDDEE"/>
<path fill-rule="evenodd" clip-rule="evenodd" d="M285 334.432C336.049 334.432 377.432 293.049 377.432 242C377.432 190.951 336.049 149.568 285 149.568C233.951 149.568 192.568 190.951 192.568 242C192.568 293.049 233.951 334.432 285 334.432ZM285 316.432C326.108 316.432 359.432 283.108 359.432 242C359.432 200.892 326.108 167.568 285 167.568C243.892 167.568 210.568 200.892 210.568 242C210.568 283.108 243.892 316.432 285 316.432Z" fill="#FFDDEE"/>
<path fill-rule="evenodd" clip-rule="evenodd" d="M423.649 242C423.649 318.573 361.573 380.649 285 380.649C208.426 380.649 146.351 318.573 146.351 242C146.351 165.426 208.426 103.351 285 103.351C361.573 103.351 423.649 165.426 423.649 242ZM405.649 242C405.649 308.632 351.632 362.649 285 362.649C218.368 362.649 164.351 308.632 164.351 242C164.351 175.368 218.368 121.351 285 121.351C351.632 121.351 405.649 175.368 405.649 242Z" fill="#FFDDEE"/>
<path fill-rule="evenodd" clip-rule="evenodd" d="M285 426.865C387.098 426.865 469.865 344.098 469.865 242C469.865 139.902 387.098 57.1351 285 57.1351C182.902 57.1351 100.135 139.902 100.135 242C100.135 344.098 182.902 426.865 285 426.865ZM285 408.865C377.157 408.865 451.865 334.157 451.865 242C451.865 149.843 377.157 75.1351 285 75.1351C192.843 75.1351 118.135 149.843 118.135 242C118.135 334.157 192.843 408.865 285 408.865Z" fill="#FFDDEE"/>
<path fill-rule="evenodd" clip-rule="evenodd" d="M523.784 242C523.784 373.877 416.877 480.784 285 480.784C153.123 480.784 46.2162 373.877 46.2162 242C46.2162 110.123 153.123 3.21619 285 3.21619C416.877 3.21619 523.784 110.123 523.784 242ZM505.784 242C505.784 363.935 406.936 462.784 285 462.784C163.065 462.784 64.2162 363.935 64.2162 242C64.2162 120.064 163.065 21.2162 285 21.2162C406.936 21.2162 505.784 120.064 505.784 242Z" fill="#FFDDEE"/>
</svg>
