<svg width="106" height="18" viewBox="0 0 106 18" fill="none" xmlns="http://www.w3.org/2000/svg">
<g id="Rating">
<path id="Star 1" d="M8.80979 0.58541C8.86966 0.401148 9.13034 0.401148 9.19021 0.58541L10.9757 6.08065C11.0025 6.16306 11.0793 6.21885 11.1659 6.21885H16.944C17.1377 6.21885 17.2183 6.46677 17.0615 6.58065L12.387 9.9769C12.3169 10.0278 12.2876 10.1181 12.3143 10.2005L14.0999 15.6957C14.1597 15.88 13.9488 16.0332 13.7921 15.9193L9.11756 12.5231C9.04746 12.4722 8.95254 12.4722 8.88244 12.5231L4.20791 15.9193C4.05117 16.0332 3.84027 15.88 3.90014 15.6957L5.68566 10.2005C5.71243 10.1181 5.6831 10.0278 5.613 9.9769L0.938471 6.58065C0.781729 6.46677 0.862284 6.21885 1.05603 6.21885H6.83407C6.92071 6.21885 6.9975 6.16306 7.02428 6.08065L8.80979 0.58541Z" fill="#FBB616"/>
<path id="Star 2" d="M30.8098 0.58541C30.8697 0.401148 31.1303 0.401148 31.1902 0.58541L32.9757 6.08065C33.0025 6.16306 33.0793 6.21885 33.1659 6.21885H38.944C39.1377 6.21885 39.2183 6.46677 39.0615 6.58065L34.387 9.9769C34.3169 10.0278 34.2876 10.1181 34.3143 10.2005L36.0999 15.6957C36.1597 15.88 35.9488 16.0332 35.7921 15.9193L31.1176 12.5231C31.0475 12.4722 30.9525 12.4722 30.8824 12.5231L26.2079 15.9193C26.0512 16.0332 25.8403 15.88 25.9001 15.6957L27.6857 10.2005C27.7124 10.1181 27.6831 10.0278 27.613 9.9769L22.9385 6.58065C22.7817 6.46677 22.8623 6.21885 23.056 6.21885H28.8341C28.9207 6.21885 28.9975 6.16306 29.0243 6.08065L30.8098 0.58541Z" fill="#FBB616"/>
<path id="Star 3" d="M52.8098 0.58541C52.8697 0.401148 53.1303 0.401148 53.1902 0.58541L54.9757 6.08065C55.0025 6.16306 55.0793 6.21885 55.1659 6.21885H60.944C61.1377 6.21885 61.2183 6.46677 61.0615 6.58065L56.387 9.9769C56.3169 10.0278 56.2876 10.1181 56.3143 10.2005L58.0999 15.6957C58.1597 15.88 57.9488 16.0332 57.7921 15.9193L53.1176 12.5231C53.0475 12.4722 52.9525 12.4722 52.8824 12.5231L48.2079 15.9193C48.0512 16.0332 47.8403 15.88 47.9001 15.6957L49.6857 10.2005C49.7124 10.1181 49.6831 10.0278 49.613 9.9769L44.9385 6.58065C44.7817 6.46677 44.8623 6.21885 45.056 6.21885H50.8341C50.9207 6.21885 50.9975 6.16306 51.0243 6.08065L52.8098 0.58541Z" fill="#FBB616"/>
<path id="Star 4" d="M74.8098 0.58541C74.8697 0.401148 75.1303 0.401148 75.1902 0.58541L76.9757 6.08065C77.0025 6.16306 77.0793 6.21885 77.1659 6.21885H82.944C83.1377 6.21885 83.2183 6.46677 83.0615 6.58065L78.387 9.9769C78.3169 10.0278 78.2876 10.1181 78.3143 10.2005L80.0999 15.6957C80.1597 15.88 79.9488 16.0332 79.7921 15.9193L75.1176 12.5231C75.0475 12.4722 74.9525 12.4722 74.8824 12.5231L70.2079 15.9193C70.0512 16.0332 69.8403 15.88 69.9001 15.6957L71.6857 10.2005C71.7124 10.1181 71.6831 10.0278 71.613 9.9769L66.9385 6.58065C66.7817 6.46677 66.8623 6.21885 67.056 6.21885H72.8341C72.9207 6.21885 72.9975 6.16306 73.0243 6.08065L74.8098 0.58541Z" fill="#FBB616"/>
<path id="Star 5" d="M96.8098 0.58541C96.8697 0.401148 97.1303 0.401148 97.1902 0.58541L98.9757 6.08065C99.0025 6.16306 99.0793 6.21885 99.1659 6.21885H104.944C105.138 6.21885 105.218 6.46677 105.062 6.58065L100.387 9.9769C100.317 10.0278 100.288 10.1181 100.314 10.2005L102.1 15.6957C102.16 15.88 101.949 16.0332 101.792 15.9193L97.1176 12.5231C97.0475 12.4722 96.9525 12.4722 96.8824 12.5231L92.2079 15.9193C92.0512 16.0332 91.8403 15.88 91.9001 15.6957L93.6857 10.2005C93.7124 10.1181 93.6831 10.0278 93.613 9.9769L88.9385 6.58065C88.7817 6.46677 88.8623 6.21885 89.056 6.21885H94.8341C94.9207 6.21885 94.9975 6.16306 95.0243 6.08065L96.8098 0.58541Z" fill="#FBB616"/>
</g>
</svg>
