<svg width="136" height="36" viewBox="0 0 136 36" fill="none" xmlns="http://www.w3.org/2000/svg">
<g id="Group 17751">
<g id="Social">
<g id="Group 431">
<circle id="Ellipse 731" cx="18" cy="18" r="18" fill="#182327"/>
<path id="Vector" d="M19.1427 24.8502V18.036H21.1907L21.4621 15.6378H19.1427L19.1461 14.4373C19.1461 13.8118 19.2095 13.4768 20.1673 13.4768H21.4478V11.0781H19.3993C16.9388 11.0781 16.0729 12.2415 16.0729 14.1982V15.638H14.5391V18.0365H16.0729V24.7536C16.6704 24.8653 17.2882 24.9243 17.9207 24.9243C18.3293 24.9243 18.7375 24.8996 19.1427 24.8502Z" fill="white"/>
</g>
<g id="Group 432">
<circle id="Ellipse 731_2" cx="118" cy="18" r="18" fill="#182327"/>
<path id="Vector_2" d="M127 12.7173C126.331 12.9953 125.617 13.1795 124.874 13.269C125.639 12.8366 126.223 12.1571 126.497 11.338C125.784 11.7406 124.996 12.025 124.157 12.1837C123.48 11.501 122.515 11.0781 121.462 11.0781C119.419 11.0781 117.774 12.6481 117.774 14.5727C117.774 14.8496 117.799 15.1159 117.859 15.3694C114.792 15.2277 112.077 13.8356 110.253 11.715C109.935 12.238 109.748 12.8366 109.748 13.481C109.748 14.6909 110.406 15.7635 111.387 16.3844C110.794 16.3737 110.213 16.2108 109.72 15.9541C109.72 15.9648 109.72 15.9786 109.72 15.9924C109.72 17.6902 110.999 19.1004 112.676 19.4252C112.376 19.503 112.049 19.5403 111.709 19.5403C111.473 19.5403 111.234 19.5275 111.01 19.4806C111.488 20.8642 112.845 21.8813 114.459 21.9143C113.203 22.8442 111.609 23.4044 109.883 23.4044C109.581 23.4044 109.29 23.3916 109 23.3565C110.635 24.3545 112.572 24.9243 114.661 24.9243C121.451 24.9243 125.164 19.5988 125.164 14.9827C125.164 14.8283 125.158 14.6792 125.15 14.5311C125.883 14.0391 126.498 13.4245 127 12.7173Z" fill="white"/>
</g>
<g id="Group 433">
<circle id="Ellipse 731_3" cx="68" cy="18" r="18" fill="#182327"/>
<path id="Vector_3" d="M61.0762 12.6865C61.0762 12.2203 61.2399 11.8357 61.5673 11.5327C61.8948 11.2296 62.3205 11.0781 62.8444 11.0781C63.3589 11.0781 63.7752 11.2273 64.0933 11.5257C64.4208 11.8334 64.5845 12.2343 64.5845 12.7285C64.5845 13.176 64.4254 13.549 64.1074 13.8474C63.7799 14.155 63.3496 14.3089 62.8163 14.3089H62.8023C62.2877 14.3089 61.8714 14.155 61.5533 13.8474C61.2352 13.5397 61.0762 13.1527 61.0762 12.6865ZM61.2586 24.9243V15.5816H64.374V24.9243H61.2586ZM66.1001 24.9243H69.2155V19.7075C69.2155 19.3811 69.2529 19.1294 69.3277 18.9523C69.4587 18.6352 69.6575 18.3672 69.9241 18.1481C70.1908 17.9289 70.5252 17.8194 70.9275 17.8194C71.9753 17.8194 72.4992 18.5233 72.4992 19.9313V24.9243H75.6146V19.5676C75.6146 18.1877 75.2872 17.1411 74.6323 16.4278C73.9774 15.7145 73.112 15.3578 72.0362 15.3578C70.8293 15.3578 69.8891 15.8753 69.2155 16.9103V16.9383H69.2014L69.2155 16.9103V15.5816H66.1001C66.1188 15.88 66.1281 16.8077 66.1281 18.3648C66.1281 19.9219 66.1188 22.1084 66.1001 24.9243Z" fill="white"/>
</g>
</g>
</g>
</svg>
