<svg width="52" height="52" viewBox="0 0 52 52" fill="none" xmlns="http://www.w3.org/2000/svg">
<g id="Group 17812">
<circle id="Ellipse 737" cx="26" cy="26" r="26" fill="#182327"/>
<g id="Group">
<path id="Vector" fill-rule="evenodd" clip-rule="evenodd" d="M30 23C30 24.0609 29.5786 25.0783 28.8284 25.8284C28.0783 26.5786 27.0609 27 26 27C24.9391 27 23.9217 26.5786 23.1716 25.8284C22.4214 25.0783 22 24.0609 22 23C22 21.9391 22.4214 20.9217 23.1716 20.1716C23.9217 19.4214 24.9391 19 26 19C27.0609 19 28.0783 19.4214 28.8284 20.1716C29.5786 20.9217 30 21.9391 30 23ZM28 23C28 23.5304 27.7893 24.0391 27.4142 24.4142C27.0391 24.7893 26.5304 25 26 25C25.4696 25 24.9609 24.7893 24.5858 24.4142C24.2107 24.0391 24 23.5304 24 23C24 22.4696 24.2107 21.9609 24.5858 21.5858C24.9609 21.2107 25.4696 21 26 21C26.5304 21 27.0391 21.2107 27.4142 21.5858C27.7893 21.9609 28 22.4696 28 23Z" fill="white"/>
<path id="Vector_2" fill-rule="evenodd" clip-rule="evenodd" d="M26 15C19.925 15 15 19.925 15 26C15 32.075 19.925 37 26 37C32.075 37 37 32.075 37 26C37 19.925 32.075 15 26 15ZM17 26C17 28.09 17.713 30.014 18.908 31.542C19.7472 30.4399 20.8299 29.5467 22.0714 28.9323C23.313 28.3179 24.6797 27.9988 26.065 28C27.4323 27.9987 28.7819 28.3095 30.0109 28.9088C31.2399 29.508 32.316 30.3799 33.157 31.458C34.0234 30.3216 34.6068 28.9952 34.8589 27.5886C35.111 26.182 35.0244 24.7355 34.6065 23.369C34.1886 22.0024 33.4512 20.755 32.4555 19.73C31.4598 18.705 30.2343 17.9319 28.8804 17.4745C27.5265 17.0172 26.0832 16.8888 24.6699 17.1C23.2565 17.3112 21.9138 17.8559 20.7528 18.6891C19.5917 19.5222 18.6458 20.6199 17.9932 21.8912C17.3406 23.1625 17.0002 24.571 17 26ZM26 35C23.9339 35.0031 21.9303 34.2923 20.328 32.988C20.9729 32.0647 21.8313 31.3109 22.8302 30.7907C23.829 30.2705 24.9388 29.9992 26.065 30C27.1772 29.9991 28.2735 30.2636 29.2629 30.7714C30.2524 31.2793 31.1064 32.0159 31.754 32.92C30.1393 34.2667 28.1026 35.0029 26 35Z" fill="white"/>
</g>
</g>
</svg>
